STARTFONT 2.1
FONT -FontForge-Zen Loop-Book-R-Normal--24-240-72-72-P-76-ISO10646-1
SIZE 24 72 72
FONTBOUNDINGBOX 20 27 -2 -6
COMMENT "Generated by fontforge, http://fontforge.sourceforge.net"
COMMENT "Copyright 2021 The Zen-Loop Project Authors (https://github.com/googlefonts/zen-loop)"
STARTPROPERTIES 39
FOUNDRY "FontForge"
FAMILY_NAME "Zen Loop"
WEIGHT_NAME "Book"
SLANT "R"
SETWIDTH_NAME "Normal"
ADD_STYLE_NAME ""
PIXEL_SIZE 24
POINT_SIZE 240
RESOLUTION_X 72
RESOLUTION_Y 72
SPACING "P"
AVERAGE_WIDTH 76
CHARSET_REGISTRY "ISO10646"
CHARSET_ENCODING "1"
FONTNAME_REGISTRY ""
CHARSET_COLLECTIONS "ISO10646-1"
FONT_NAME "ZenLoop-Regular"
FACE_NAME "Zen Loop Regular"
COPYRIGHT "Copyright 2021 The Zen-Loop Project Authors (https://github.com/googlefonts/zen-loop)"
FONT_VERSION "1.000; ttfautohint (v1.8.3)"
FONT_ASCENT 19
FONT_DESCENT 5
UNDERLINE_POSITION -3
UNDERLINE_THICKNESS 1
X_HEIGHT 11
CAP_HEIGHT 16
RAW_ASCENT 800
RAW_DESCENT 200
NORM_SPACE 6
RELATIVE_WEIGHT 40
RELATIVE_SETWIDTH 50
SUPERSCRIPT_X 0
SUPERSCRIPT_Y 8
SUPERSCRIPT_SIZE 14
SUBSCRIPT_X 0
SUBSCRIPT_Y 1
SUBSCRIPT_SIZE 14
AVG_LOWERCASE_WIDTH 68
AVG_UPPERCASE_WIDTH 91
ENDPROPERTIES
CHARS 248
STARTCHAR CR
ENCODING 13
SWIDTH 600 0
DWIDTH 14 0
BBX 1 1 0 0
BITMAP
00
ENDCHAR
STARTCHAR space
ENCODING 32
SWIDTH 240 0
DWIDTH 6 0
BBX 1 1 0 0
BITMAP
00
ENDCHAR
STARTCHAR exclam
ENCODING 33
SWIDTH 141 0
DWIDTH 3 0
BBX 1 17 1 0
BITMAP
80
80
80
80
80
80
80
80
80
80
80
80
00
00
80
80
80
ENDCHAR
STARTCHAR quotedbl
ENCODING 34
SWIDTH 195 0
DWIDTH 5 0
BBX 2 5 1 12
BITMAP
C0
C0
C0
C0
C0
ENDCHAR
STARTCHAR numbersign
ENCODING 35
SWIDTH 454 0
DWIDTH 11 0
BBX 10 17 0 0
BITMAP
0880
0880
0880
0880
0880
3FC0
1100
1100
1100
1100
1100
FF80
2200
2200
2200
2200
2200
ENDCHAR
STARTCHAR dollar
ENCODING 36
SWIDTH 356 0
DWIDTH 9 0
BBX 8 22 0 -2
BITMAP
08
08
08
3C
4A
49
48
48
48
28
10
08
0C
0A
09
09
89
49
4A
3C
08
08
ENDCHAR
STARTCHAR percent
ENCODING 37
SWIDTH 470 0
DWIDTH 11 0
BBX 9 17 1 0
BITMAP
6100
9100
8900
8A00
8A00
8C00
9400
6400
0800
0B00
1480
1480
1880
2880
2480
4480
4300
ENDCHAR
STARTCHAR ampersand
ENCODING 38
SWIDTH 520 0
DWIDTH 12 0
BBX 11 17 1 0
BITMAP
0C00
1200
1200
1200
1200
1400
1800
1000
28C0
4920
8900
8600
8200
8200
8500
8480
7860
ENDCHAR
STARTCHAR quotesingle
ENCODING 39
SWIDTH 121 0
DWIDTH 3 0
BBX 1 5 1 12
BITMAP
80
80
80
80
80
ENDCHAR
STARTCHAR parenleft
ENCODING 40
SWIDTH 233 0
DWIDTH 6 0
BBX 3 19 2 -2
BITMAP
20
40
40
80
80
80
80
80
80
80
80
80
80
80
80
40
40
40
20
ENDCHAR
STARTCHAR parenright
ENCODING 41
SWIDTH 233 0
DWIDTH 6 0
BBX 3 19 1 -1
BITMAP
80
80
40
40
40
20
20
20
20
20
20
20
20
20
20
40
40
80
80
ENDCHAR
STARTCHAR asterisk
ENCODING 42
SWIDTH 313 0
DWIDTH 8 0
BBX 6 5 1 12
BITMAP
20
20
FC
20
58
ENDCHAR
STARTCHAR plus
ENCODING 43
SWIDTH 577 0
DWIDTH 14 0
BBX 12 12 1 0
BITMAP
0400
0400
0400
0400
0400
0400
FFF0
0400
0400
0400
0400
0400
ENDCHAR
STARTCHAR comma
ENCODING 44
SWIDTH 145 0
DWIDTH 3 0
BBX 2 5 0 -2
BITMAP
40
40
40
40
C0
ENDCHAR
STARTCHAR hyphen
ENCODING 45
SWIDTH 286 0
DWIDTH 7 0
BBX 5 1 1 7
BITMAP
F8
ENDCHAR
STARTCHAR period
ENCODING 46
SWIDTH 181 0
DWIDTH 4 0
BBX 1 3 2 0
BITMAP
80
80
80
ENDCHAR
STARTCHAR slash
ENCODING 47
SWIDTH 292 0
DWIDTH 7 0
BBX 7 21 0 -2
BITMAP
02
02
02
04
04
04
08
08
08
10
10
10
20
20
20
20
40
40
40
80
80
ENDCHAR
STARTCHAR zero
ENCODING 48
SWIDTH 378 0
DWIDTH 9 0
BBX 7 17 1 0
BITMAP
38
44
44
82
82
82
82
82
82
82
82
82
82
82
44
44
38
ENDCHAR
STARTCHAR one
ENCODING 49
SWIDTH 303 0
DWIDTH 7 0
BBX 6 17 1 0
BITMAP
60
A0
20
20
20
20
20
20
20
20
20
20
20
20
20
20
FC
ENDCHAR
STARTCHAR two
ENCODING 50
SWIDTH 343 0
DWIDTH 8 0
BBX 8 17 0 0
BITMAP
3C
42
42
02
02
02
02
02
04
08
08
10
20
40
40
80
FF
ENDCHAR
STARTCHAR three
ENCODING 51
SWIDTH 377 0
DWIDTH 9 0
BBX 7 17 1 0
BITMAP
38
44
04
02
04
04
34
4C
72
02
02
02
02
02
02
84
78
ENDCHAR
STARTCHAR four
ENCODING 52
SWIDTH 389 0
DWIDTH 9 0
BBX 8 17 1 0
BITMAP
04
08
08
10
10
24
24
24
44
44
84
84
FF
04
04
04
04
ENDCHAR
STARTCHAR five
ENCODING 53
SWIDTH 372 0
DWIDTH 9 0
BBX 7 18 1 0
BITMAP
02
3C
40
40
40
40
40
38
C4
C2
C2
82
02
02
02
02
84
78
ENDCHAR
STARTCHAR six
ENCODING 54
SWIDTH 360 0
DWIDTH 9 0
BBX 7 17 1 0
BITMAP
08
10
20
20
40
40
80
B8
C4
82
82
82
82
82
82
44
38
ENDCHAR
STARTCHAR seven
ENCODING 55
SWIDTH 321 0
DWIDTH 8 0
BBX 6 17 1 0
BITMAP
FC
04
08
08
08
10
10
10
20
20
20
20
40
40
40
80
80
ENDCHAR
STARTCHAR eight
ENCODING 56
SWIDTH 377 0
DWIDTH 9 0
BBX 7 17 1 0
BITMAP
38
44
82
82
82
82
44
28
38
44
82
82
82
82
82
42
3C
ENDCHAR
STARTCHAR nine
ENCODING 57
SWIDTH 360 0
DWIDTH 9 0
BBX 7 17 1 0
BITMAP
38
44
84
82
82
82
82
82
8A
72
04
04
04
08
10
10
20
ENDCHAR
STARTCHAR colon
ENCODING 58
SWIDTH 181 0
DWIDTH 4 0
BBX 1 12 2 0
BITMAP
80
80
80
00
00
00
00
00
00
80
80
80
ENDCHAR
STARTCHAR semicolon
ENCODING 59
SWIDTH 165 0
DWIDTH 4 0
BBX 2 14 0 -2
BITMAP
40
40
40
00
00
00
00
00
00
40
40
40
40
C0
ENDCHAR
STARTCHAR less
ENCODING 60
SWIDTH 482 0
DWIDTH 12 0
BBX 9 9 1 1
BITMAP
0180
0600
1800
6000
C000
3000
0C00
0300
0080
ENDCHAR
STARTCHAR equal
ENCODING 61
SWIDTH 577 0
DWIDTH 14 0
BBX 12 5 1 4
BITMAP
FFF0
0000
0000
0000
FFF0
ENDCHAR
STARTCHAR greater
ENCODING 62
SWIDTH 482 0
DWIDTH 12 0
BBX 9 9 1 1
BITMAP
C000
3000
0C00
0300
0080
0100
0600
1800
E000
ENDCHAR
STARTCHAR question
ENCODING 63
SWIDTH 300 0
DWIDTH 7 0
BBX 5 17 1 0
BITMAP
70
88
08
08
08
10
10
20
20
40
40
40
20
00
20
20
20
ENDCHAR
STARTCHAR at
ENCODING 64
SWIDTH 748 0
DWIDTH 18 0
BBX 16 17 1 0
BITMAP
07F0
1808
20C4
4122
4121
8221
8401
8441
84C1
8941
8982
8982
498C
4670
2002
180C
07F0
ENDCHAR
STARTCHAR A
ENCODING 65
SWIDTH 414 0
DWIDTH 10 0
BBX 10 17 0 0
BITMAP
0800
0C00
0C00
0C00
1200
1200
1200
2200
2100
3F00
2100
4100
4080
4080
4080
8080
8040
ENDCHAR
STARTCHAR B
ENCODING 66
SWIDTH 375 0
DWIDTH 9 0
BBX 7 17 1 0
BITMAP
F8
84
84
82
82
82
B2
AC
9C
82
82
82
82
82
82
84
F8
ENDCHAR
STARTCHAR C
ENCODING 67
SWIDTH 366 0
DWIDTH 9 0
BBX 7 17 1 0
BITMAP
3E
40
40
80
80
80
80
80
80
80
80
80
80
80
40
40
3E
ENDCHAR
STARTCHAR D
ENCODING 68
SWIDTH 396 0
DWIDTH 10 0
BBX 8 17 1 0
BITMAP
F8
84
82
82
82
81
81
81
81
81
81
81
82
82
82
84
F8
ENDCHAR
STARTCHAR E
ENCODING 69
SWIDTH 309 0
DWIDTH 7 0
BBX 5 17 1 0
BITMAP
F8
80
80
80
80
80
80
F8
80
80
80
80
80
80
80
80
F8
ENDCHAR
STARTCHAR F
ENCODING 70
SWIDTH 299 0
DWIDTH 7 0
BBX 5 17 1 0
BITMAP
F8
80
80
80
80
80
80
F8
80
80
80
80
80
80
80
80
80
ENDCHAR
STARTCHAR G
ENCODING 71
SWIDTH 382 0
DWIDTH 9 0
BBX 7 17 1 0
BITMAP
3E
40
40
80
80
80
80
80
80
8E
82
82
82
82
42
42
3C
ENDCHAR
STARTCHAR H
ENCODING 72
SWIDTH 425 0
DWIDTH 10 0
BBX 8 17 1 0
BITMAP
81
81
81
81
81
81
81
FF
81
81
81
81
81
81
81
81
81
ENDCHAR
STARTCHAR I
ENCODING 73
SWIDTH 141 0
DWIDTH 3 0
BBX 1 17 1 0
BITMAP
80
80
80
80
80
80
80
80
80
80
80
80
80
80
80
80
80
ENDCHAR
STARTCHAR J
ENCODING 74
SWIDTH 142 0
DWIDTH 3 0
BBX 4 22 -2 -5
BITMAP
10
10
10
10
10
10
10
10
10
10
10
10
10
10
10
10
10
10
10
10
10
E0
ENDCHAR
STARTCHAR K
ENCODING 75
SWIDTH 401 0
DWIDTH 10 0
BBX 9 17 0 0
BITMAP
2080
2100
2200
2200
2400
2400
7800
B400
E200
2200
2100
2100
2100
2100
2100
2080
2080
ENDCHAR
STARTCHAR L
ENCODING 76
SWIDTH 347 0
DWIDTH 8 0
BBX 7 17 1 0
BITMAP
80
80
80
80
80
80
80
80
80
80
80
80
80
80
80
80
FE
ENDCHAR
STARTCHAR M
ENCODING 77
SWIDTH 534 0
DWIDTH 13 0
BBX 11 17 1 0
BITMAP
4040
60C0
5340
4C40
4440
4A40
4A40
8A40
8440
8440
8C20
8A20
8C20
8020
8020
8020
8020
ENDCHAR
STARTCHAR N
ENCODING 78
SWIDTH 422 0
DWIDTH 10 0
BBX 8 17 1 0
BITMAP
81
81
C1
C1
A1
A1
91
91
89
89
89
85
85
83
83
81
81
ENDCHAR
STARTCHAR O
ENCODING 79
SWIDTH 446 0
DWIDTH 11 0
BBX 9 17 1 0
BITMAP
3C00
4200
4100
8100
8080
8080
8080
8080
8080
8080
8080
8080
8080
8100
4100
4200
3C00
ENDCHAR
STARTCHAR P
ENCODING 80
SWIDTH 341 0
DWIDTH 8 0
BBX 6 17 1 0
BITMAP
F8
84
84
84
84
84
84
84
F8
80
80
80
80
80
80
80
80
ENDCHAR
STARTCHAR Q
ENCODING 81
SWIDTH 446 0
DWIDTH 11 0
BBX 9 23 1 -6
BITMAP
3C00
4200
4100
8100
8080
8080
8080
8080
8080
8080
8080
C180
A280
9500
4900
5600
3C00
1400
0800
0800
1800
1400
1800
ENDCHAR
STARTCHAR R
ENCODING 82
SWIDTH 380 0
DWIDTH 9 0
BBX 9 17 0 0
BITMAP
7C00
4200
4100
4100
4100
4100
6200
CC00
7C00
4200
4200
4100
4100
4100
4100
4100
4080
ENDCHAR
STARTCHAR S
ENCODING 83
SWIDTH 356 0
DWIDTH 9 0
BBX 8 17 0 0
BITMAP
3C
42
41
40
40
40
20
10
08
04
02
01
01
81
81
42
3C
ENDCHAR
STARTCHAR T
ENCODING 84
SWIDTH 377 0
DWIDTH 9 0
BBX 9 17 0 0
BITMAP
FF80
0800
0800
0800
0800
0800
0800
0800
0800
0800
0800
0800
0800
0800
0800
0800
0800
ENDCHAR
STARTCHAR U
ENCODING 85
SWIDTH 412 0
DWIDTH 10 0
BBX 8 17 1 0
BITMAP
81
81
81
81
81
81
81
81
81
81
81
81
81
81
81
42
3C
ENDCHAR
STARTCHAR V
ENCODING 86
SWIDTH 384 0
DWIDTH 9 0
BBX 9 17 0 0
BITMAP
8080
8080
4080
4100
4100
4100
2100
2200
2200
2200
1200
1400
1400
1400
0800
0800
0800
ENDCHAR
STARTCHAR W
ENCODING 87
SWIDTH 534 0
DWIDTH 13 0
BBX 11 17 1 0
BITMAP
8020
8020
8020
8020
8020
8420
8A20
8A40
8A40
8C40
4440
4440
4A40
5240
5140
60C0
4040
ENDCHAR
STARTCHAR X
ENCODING 88
SWIDTH 318 0
DWIDTH 8 0
BBX 7 17 0 0
BITMAP
42
42
44
24
24
28
18
10
10
18
28
24
24
44
42
82
82
ENDCHAR
STARTCHAR Y
ENCODING 89
SWIDTH 370 0
DWIDTH 9 0
BBX 9 17 0 0
BITMAP
8080
4100
4100
4200
2200
2200
1400
1400
0800
0800
0800
0800
0800
0800
0800
0800
0800
ENDCHAR
STARTCHAR Z
ENCODING 90
SWIDTH 309 0
DWIDTH 7 0
BBX 7 17 0 0
BITMAP
7E
02
04
04
04
08
08
10
10
10
20
20
20
40
40
40
FE
ENDCHAR
STARTCHAR bracketleft
ENCODING 91
SWIDTH 193 0
DWIDTH 5 0
BBX 4 21 1 -2
BITMAP
F0
80
80
80
80
80
80
80
80
80
80
80
80
80
80
80
80
80
80
80
F0
ENDCHAR
STARTCHAR backslash
ENCODING 92
SWIDTH 292 0
DWIDTH 7 0
BBX 7 21 0 -2
BITMAP
80
80
80
40
40
40
20
20
20
10
10
10
08
08
08
08
04
04
04
02
02
ENDCHAR
STARTCHAR bracketright
ENCODING 93
SWIDTH 193 0
DWIDTH 5 0
BBX 3 21 0 -2
BITMAP
E0
20
20
20
20
20
20
20
20
20
20
20
20
20
20
20
20
20
20
20
E0
ENDCHAR
STARTCHAR asciicircum
ENCODING 94
SWIDTH 416 0
DWIDTH 10 0
BBX 10 10 0 8
BITMAP
0800
0C00
0C00
1200
1200
2100
2100
4080
4080
8040
ENDCHAR
STARTCHAR underscore
ENCODING 95
SWIDTH 556 0
DWIDTH 13 0
BBX 11 1 1 -1
BITMAP
FFE0
ENDCHAR
STARTCHAR grave
ENCODING 96
SWIDTH 201 0
DWIDTH 5 0
BBX 2 3 1 13
BITMAP
80
40
40
ENDCHAR
STARTCHAR a
ENCODING 97
SWIDTH 315 0
DWIDTH 8 0
BBX 6 12 1 0
BITMAP
70
88
08
08
08
18
68
88
88
88
98
EC
ENDCHAR
STARTCHAR b
ENCODING 98
SWIDTH 298 0
DWIDTH 7 0
BBX 5 18 1 0
BITMAP
80
80
80
80
80
80
F0
88
88
88
88
88
88
88
88
88
88
F0
ENDCHAR
STARTCHAR c
ENCODING 99
SWIDTH 275 0
DWIDTH 7 0
BBX 5 12 1 0
BITMAP
30
48
88
80
80
80
80
80
80
88
48
30
ENDCHAR
STARTCHAR d
ENCODING 100
SWIDTH 298 0
DWIDTH 7 0
BBX 5 18 1 0
BITMAP
08
08
08
08
08
08
78
88
88
88
88
88
88
88
88
88
88
78
ENDCHAR
STARTCHAR e
ENCODING 101
SWIDTH 285 0
DWIDTH 7 0
BBX 5 12 1 0
BITMAP
30
48
88
88
F8
80
80
80
80
88
48
30
ENDCHAR
STARTCHAR f
ENCODING 102
SWIDTH 178 0
DWIDTH 4 0
BBX 6 18 0 0
BITMAP
1C
20
20
20
20
20
F0
20
20
20
20
20
20
20
20
20
20
20
ENDCHAR
STARTCHAR g
ENCODING 103
SWIDTH 302 0
DWIDTH 7 0
BBX 7 18 0 -5
BITMAP
04
38
24
44
44
44
44
44
24
38
40
40
3C
42
82
82
82
7C
ENDCHAR
STARTCHAR h
ENCODING 104
SWIDTH 307 0
DWIDTH 7 0
BBX 5 18 1 0
BITMAP
80
80
80
80
80
80
B8
C8
88
88
88
88
88
88
88
88
88
88
ENDCHAR
STARTCHAR i
ENCODING 105
SWIDTH 141 0
DWIDTH 3 0
BBX 1 16 1 0
BITMAP
80
80
80
00
80
80
80
80
80
80
80
80
80
80
80
80
ENDCHAR
STARTCHAR j
ENCODING 106
SWIDTH 141 0
DWIDTH 3 0
BBX 4 21 -2 -5
BITMAP
10
10
10
00
10
10
10
10
10
10
10
10
10
10
10
10
10
10
10
10
E0
ENDCHAR
STARTCHAR k
ENCODING 107
SWIDTH 287 0
DWIDTH 7 0
BBX 5 18 1 0
BITMAP
80
80
80
80
80
80
88
88
90
A0
A0
D0
90
90
88
88
88
88
ENDCHAR
STARTCHAR l
ENCODING 108
SWIDTH 141 0
DWIDTH 3 0
BBX 1 18 1 0
BITMAP
80
80
80
80
80
80
80
80
80
80
80
80
80
80
80
80
80
80
ENDCHAR
STARTCHAR m
ENCODING 109
SWIDTH 407 0
DWIDTH 10 0
BBX 8 12 1 0
BITMAP
C3
A5
99
91
99
99
99
91
81
81
81
81
ENDCHAR
STARTCHAR n
ENCODING 110
SWIDTH 307 0
DWIDTH 7 0
BBX 5 12 1 0
BITMAP
B8
C8
88
88
88
88
88
88
88
88
88
88
ENDCHAR
STARTCHAR o
ENCODING 111
SWIDTH 309 0
DWIDTH 7 0
BBX 5 12 1 0
BITMAP
30
48
88
88
88
88
88
88
88
88
48
30
ENDCHAR
STARTCHAR p
ENCODING 112
SWIDTH 299 0
DWIDTH 7 0
BBX 6 18 0 -5
BITMAP
40
78
C4
44
44
44
44
44
44
44
44
44
78
40
40
40
40
40
ENDCHAR
STARTCHAR q
ENCODING 113
SWIDTH 286 0
DWIDTH 7 0
BBX 6 17 1 -5
BITMAP
78
88
88
88
88
88
88
88
88
88
88
78
08
08
08
08
04
ENDCHAR
STARTCHAR r
ENCODING 114
SWIDTH 277 0
DWIDTH 7 0
BBX 5 12 1 0
BITMAP
B0
C8
88
80
80
80
80
80
80
80
80
80
ENDCHAR
STARTCHAR s
ENCODING 115
SWIDTH 257 0
DWIDTH 6 0
BBX 5 12 1 0
BITMAP
60
90
80
80
80
40
20
10
08
88
88
70
ENDCHAR
STARTCHAR t
ENCODING 116
SWIDTH 207 0
DWIDTH 5 0
BBX 4 15 0 0
BITMAP
20
20
20
F0
20
20
20
20
20
20
20
20
20
20
30
ENDCHAR
STARTCHAR u
ENCODING 117
SWIDTH 307 0
DWIDTH 7 0
BBX 5 12 1 0
BITMAP
88
88
88
88
88
88
88
88
88
88
88
78
ENDCHAR
STARTCHAR v
ENCODING 118
SWIDTH 285 0
DWIDTH 7 0
BBX 6 12 0 0
BITMAP
84
44
44
44
44
48
28
28
28
30
10
10
ENDCHAR
STARTCHAR w
ENCODING 119
SWIDTH 396 0
DWIDTH 10 0
BBX 8 12 1 0
BITMAP
81
81
81
91
99
99
99
92
92
AA
C6
42
ENDCHAR
STARTCHAR x
ENCODING 120
SWIDTH 244 0
DWIDTH 6 0
BBX 5 12 0 0
BITMAP
48
48
48
30
30
20
20
30
50
48
48
88
ENDCHAR
STARTCHAR y
ENCODING 121
SWIDTH 285 0
DWIDTH 7 0
BBX 6 17 0 -5
BITMAP
84
84
44
44
44
48
28
28
28
28
10
10
10
10
20
20
C0
ENDCHAR
STARTCHAR z
ENCODING 122
SWIDTH 233 0
DWIDTH 6 0
BBX 5 12 0 0
BITMAP
78
08
08
10
10
20
20
20
40
40
40
F8
ENDCHAR
STARTCHAR braceleft
ENCODING 123
SWIDTH 306 0
DWIDTH 7 0
BBX 7 21 0 -2
BITMAP
06
08
08
08
08
08
08
08
08
68
90
68
08
08
08
08
08
08
08
08
06
ENDCHAR
STARTCHAR bar
ENCODING 124
SWIDTH 141 0
DWIDTH 3 0
BBX 1 21 1 -2
BITMAP
80
80
80
80
80
80
80
80
80
80
80
80
80
80
80
80
80
80
80
80
80
ENDCHAR
STARTCHAR braceright
ENCODING 125
SWIDTH 306 0
DWIDTH 7 0
BBX 7 21 0 -2
BITMAP
C0
20
20
20
20
20
20
20
20
1C
12
1C
20
20
20
20
20
20
20
20
C0
ENDCHAR
STARTCHAR asciitilde
ENCODING 126
SWIDTH 433 0
DWIDTH 10 0
BBX 8 2 1 6
BITMAP
71
8E
ENDCHAR
STARTCHAR uni00A0
ENCODING 160
SWIDTH 240 0
DWIDTH 6 0
BBX 1 1 0 0
BITMAP
00
ENDCHAR
STARTCHAR exclamdown
ENCODING 161
SWIDTH 141 0
DWIDTH 3 0
BBX 1 17 1 -4
BITMAP
80
80
80
00
00
80
80
80
80
80
80
80
80
80
80
80
80
ENDCHAR
STARTCHAR cent
ENCODING 162
SWIDTH 275 0
DWIDTH 7 0
BBX 5 17 1 -2
BITMAP
20
20
20
30
68
A8
A0
A0
A0
A0
A0
A8
A8
70
20
20
20
ENDCHAR
STARTCHAR sterling
ENCODING 163
SWIDTH 331 0
DWIDTH 8 0
BBX 7 17 0 0
BITMAP
3C
42
40
80
40
40
40
20
7C
10
10
10
10
20
20
40
FE
ENDCHAR
STARTCHAR currency
ENCODING 164
SWIDTH 506 0
DWIDTH 12 0
BBX 10 11 1 2
BITMAP
8040
5E80
2100
4080
4080
4080
4080
4080
2100
5E80
8040
ENDCHAR
STARTCHAR yen
ENCODING 165
SWIDTH 370 0
DWIDTH 9 0
BBX 9 17 0 0
BITMAP
8080
4100
4100
4200
2200
2200
1400
1400
0800
0800
7F00
0800
0800
7F00
0800
0800
0800
ENDCHAR
STARTCHAR brokenbar
ENCODING 166
SWIDTH 141 0
DWIDTH 3 0
BBX 1 21 1 -2
BITMAP
80
80
80
80
80
80
80
80
80
00
00
00
80
80
80
80
80
80
80
80
80
ENDCHAR
STARTCHAR section
ENCODING 167
SWIDTH 303 0
DWIDTH 7 0
BBX 7 22 0 -2
BITMAP
38
44
42
80
40
40
20
10
38
7C
44
44
44
44
38
08
04
02
02
82
44
38
ENDCHAR
STARTCHAR dieresis
ENCODING 168
SWIDTH 241 0
DWIDTH 6 0
BBX 3 3 1 13
BITMAP
A0
A0
A0
ENDCHAR
STARTCHAR copyright
ENCODING 169
SWIDTH 772 0
DWIDTH 19 0
BBX 17 18 1 0
BITMAP
07E000
081800
300400
21C200
420100
820100
820100
840080
840080
840080
840080
820100
820100
420100
21C200
300400
081800
07E000
ENDCHAR
STARTCHAR ordfeminine
ENCODING 170
SWIDTH 231 0
DWIDTH 6 0
BBX 4 8 1 9
BITMAP
E0
A0
20
20
E0
A0
A0
D0
ENDCHAR
STARTCHAR guillemotleft
ENCODING 171
SWIDTH 403 0
DWIDTH 10 0
BBX 8 10 1 2
BITMAP
09
12
24
48
88
90
48
24
12
11
ENDCHAR
STARTCHAR logicalnot
ENCODING 172
SWIDTH 557 0
DWIDTH 13 0
BBX 11 4 1 4
BITMAP
FFE0
0020
0020
0020
ENDCHAR
STARTCHAR uni00AD
ENCODING 173
SWIDTH 286 0
DWIDTH 7 0
BBX 5 1 1 7
BITMAP
F8
ENDCHAR
STARTCHAR registered
ENCODING 174
SWIDTH 772 0
DWIDTH 19 0
BBX 17 18 1 0
BITMAP
07E000
081800
300400
200200
438100
824100
824100
824080
824080
838080
824080
824100
822100
422100
222200
300400
081800
07E000
ENDCHAR
STARTCHAR macron
ENCODING 175
SWIDTH 266 0
DWIDTH 6 0
BBX 4 1 1 14
BITMAP
F0
ENDCHAR
STARTCHAR degree
ENCODING 176
SWIDTH 350 0
DWIDTH 8 0
BBX 6 7 1 11
BITMAP
38
44
84
84
84
44
38
ENDCHAR
STARTCHAR plusminus
ENCODING 177
SWIDTH 577 0
DWIDTH 14 0
BBX 12 12 1 0
BITMAP
0400
0400
0400
0400
FFF0
0400
0400
0400
0400
0400
0000
FFF0
ENDCHAR
STARTCHAR uni00B2
ENCODING 178
SWIDTH 207 0
DWIDTH 5 0
BBX 3 8 1 9
BITMAP
E0
A0
20
20
40
40
80
E0
ENDCHAR
STARTCHAR uni00B3
ENCODING 179
SWIDTH 214 0
DWIDTH 5 0
BBX 3 8 1 9
BITMAP
E0
20
20
40
20
20
20
C0
ENDCHAR
STARTCHAR acute
ENCODING 180
SWIDTH 201 0
DWIDTH 5 0
BBX 2 3 1 13
BITMAP
40
40
80
ENDCHAR
STARTCHAR uni00B5
ENCODING 181
SWIDTH 335 0
DWIDTH 8 0
BBX 6 17 1 -5
BITMAP
88
88
88
88
88
88
88
88
88
88
88
F4
80
80
80
80
80
ENDCHAR
STARTCHAR paragraph
ENCODING 182
SWIDTH 471 0
DWIDTH 11 0
BBX 9 17 1 0
BITMAP
3C80
7C80
7C80
FC80
FC80
7C80
7C80
7C80
0C80
0280
0280
0280
0280
0280
0280
0280
0280
ENDCHAR
STARTCHAR periodcentered
ENCODING 183
SWIDTH 181 0
DWIDTH 4 0
BBX 1 3 2 6
BITMAP
80
80
80
ENDCHAR
STARTCHAR cedilla
ENCODING 184
SWIDTH 232 0
DWIDTH 6 0
BBX 3 5 1 -4
BITMAP
40
60
20
A0
40
ENDCHAR
STARTCHAR uni00B9
ENCODING 185
SWIDTH 176 0
DWIDTH 4 0
BBX 3 8 1 9
BITMAP
C0
40
40
40
40
40
40
E0
ENDCHAR
STARTCHAR ordmasculine
ENCODING 186
SWIDTH 201 0
DWIDTH 5 0
BBX 3 8 1 9
BITMAP
C0
A0
A0
A0
A0
A0
A0
C0
ENDCHAR
STARTCHAR guillemotright
ENCODING 187
SWIDTH 403 0
DWIDTH 10 0
BBX 8 10 1 2
BITMAP
90
48
24
22
11
12
22
44
48
90
ENDCHAR
STARTCHAR onequarter
ENCODING 188
SWIDTH 527 0
DWIDTH 13 0
BBX 10 17 1 0
BITMAP
C040
4040
4080
4080
4100
4100
4200
E200
0400
0480
0880
0900
1180
1280
23C0
2080
4080
ENDCHAR
STARTCHAR onehalf
ENCODING 189
SWIDTH 540 0
DWIDTH 13 0
BBX 11 17 1 0
BITMAP
C040
4040
4080
4080
4100
4100
4200
E200
0400
04C0
0920
0820
1040
1040
2080
2100
41E0
ENDCHAR
STARTCHAR threequarters
ENCODING 190
SWIDTH 517 0
DWIDTH 12 0
BBX 11 17 1 0
BITMAP
E040
2040
2080
4080
2100
2100
2200
C200
0400
0480
0880
0900
1140
1140
23E0
2040
4040
ENDCHAR
STARTCHAR questiondown
ENCODING 191
SWIDTH 300 0
DWIDTH 7 0
BBX 5 17 1 -4
BITMAP
10
10
10
00
00
10
10
10
10
20
40
40
80
80
80
88
70
ENDCHAR
STARTCHAR Agrave
ENCODING 192
SWIDTH 414 0
DWIDTH 10 0
BBX 10 21 0 0
BITMAP
1000
0800
0000
0000
0800
0C00
0C00
0C00
1200
1200
1200
2200
2100
3F00
2100
4100
4080
4080
4080
8080
8040
ENDCHAR
STARTCHAR Aacute
ENCODING 193
SWIDTH 414 0
DWIDTH 10 0
BBX 10 21 0 0
BITMAP
0200
0400
0000
0000
0800
0C00
0C00
0C00
1200
1200
1200
2200
2100
3F00
2100
4100
4080
4080
4080
8080
8040
ENDCHAR
STARTCHAR Acircumflex
ENCODING 194
SWIDTH 414 0
DWIDTH 10 0
BBX 10 20 0 0
BITMAP
0800
0C00
1200
0800
0C00
0C00
0C00
1200
1200
1200
2200
2100
3F00
2100
4100
4080
4080
4080
8080
8040
ENDCHAR
STARTCHAR Atilde
ENCODING 195
SWIDTH 414 0
DWIDTH 10 0
BBX 10 21 0 0
BITMAP
1A00
1400
0000
0000
0800
0C00
0C00
0C00
1200
1200
1200
2200
2100
3F00
2100
4100
4080
4080
4080
8080
8040
ENDCHAR
STARTCHAR Adieresis
ENCODING 196
SWIDTH 414 0
DWIDTH 10 0
BBX 10 21 0 0
BITMAP
1200
1200
1200
0000
0800
0C00
0C00
0C00
1200
1200
1200
2200
2100
3F00
2100
4100
4080
4080
4080
8080
8040
ENDCHAR
STARTCHAR Aring
ENCODING 197
SWIDTH 414 0
DWIDTH 10 0
BBX 10 21 0 0
BITMAP
0C00
1200
0C00
0000
0800
0C00
0C00
0C00
1200
1200
1200
2200
2100
3F00
2100
4100
4080
4080
4080
8080
8040
ENDCHAR
STARTCHAR AE
ENCODING 198
SWIDTH 545 0
DWIDTH 13 0
BBX 12 17 0 0
BITMAP
01F0
0100
0300
0500
0500
0500
0900
09F0
1100
1F00
1100
2100
2100
4100
4100
4100
81F0
ENDCHAR
STARTCHAR Ccedilla
ENCODING 199
SWIDTH 366 0
DWIDTH 9 0
BBX 7 21 1 -4
BITMAP
3E
40
40
80
80
80
80
80
80
80
80
80
80
80
40
40
3E
18
04
04
18
ENDCHAR
STARTCHAR Egrave
ENCODING 200
SWIDTH 309 0
DWIDTH 7 0
BBX 5 21 1 0
BITMAP
40
20
00
00
F8
80
80
80
80
80
80
F8
80
80
80
80
80
80
80
80
F8
ENDCHAR
STARTCHAR Eacute
ENCODING 201
SWIDTH 309 0
DWIDTH 7 0
BBX 5 21 1 0
BITMAP
08
10
00
00
F8
80
80
80
80
80
80
F8
80
80
80
80
80
80
80
80
F8
ENDCHAR
STARTCHAR Ecircumflex
ENCODING 202
SWIDTH 309 0
DWIDTH 7 0
BBX 5 20 1 0
BITMAP
20
30
48
F8
80
80
80
80
80
80
F8
80
80
80
80
80
80
80
80
F8
ENDCHAR
STARTCHAR Edieresis
ENCODING 203
SWIDTH 309 0
DWIDTH 7 0
BBX 5 21 1 0
BITMAP
48
48
48
00
F8
80
80
80
80
80
80
F8
80
80
80
80
80
80
80
80
F8
ENDCHAR
STARTCHAR Igrave
ENCODING 204
SWIDTH 141 0
DWIDTH 3 0
BBX 2 21 0 0
BITMAP
80
40
00
00
40
40
40
40
40
40
40
40
40
40
40
40
40
40
40
40
40
ENDCHAR
STARTCHAR Iacute
ENCODING 205
SWIDTH 141 0
DWIDTH 3 0
BBX 2 21 1 0
BITMAP
40
40
00
00
80
80
80
80
80
80
80
80
80
80
80
80
80
80
80
80
80
ENDCHAR
STARTCHAR Icircumflex
ENCODING 206
SWIDTH 141 0
DWIDTH 3 0
BBX 3 20 0 0
BITMAP
40
A0
00
40
40
40
40
40
40
40
40
40
40
40
40
40
40
40
40
40
ENDCHAR
STARTCHAR Idieresis
ENCODING 207
SWIDTH 141 0
DWIDTH 3 0
BBX 3 21 0 0
BITMAP
A0
A0
A0
00
40
40
40
40
40
40
40
40
40
40
40
40
40
40
40
40
40
ENDCHAR
STARTCHAR Eth
ENCODING 208
SWIDTH 396 0
DWIDTH 10 0
BBX 9 17 0 0
BITMAP
7C00
4200
4100
4100
4100
4080
4080
4080
F880
4080
4080
4080
4100
4100
4100
4200
7C00
ENDCHAR
STARTCHAR Ntilde
ENCODING 209
SWIDTH 422 0
DWIDTH 10 0
BBX 8 21 1 0
BITMAP
14
2C
00
00
81
81
C1
C1
A1
A1
91
91
89
89
89
85
85
83
83
81
81
ENDCHAR
STARTCHAR Ograve
ENCODING 210
SWIDTH 446 0
DWIDTH 11 0
BBX 9 21 1 0
BITMAP
1000
1000
0800
0000
3C00
4200
4100
8100
8080
8080
8080
8080
8080
8080
8080
8080
8080
8100
4100
4200
3C00
ENDCHAR
STARTCHAR Oacute
ENCODING 211
SWIDTH 446 0
DWIDTH 11 0
BBX 9 21 1 0
BITMAP
0400
0800
0000
0000
3C00
4200
4100
8100
8080
8080
8080
8080
8080
8080
8080
8080
8080
8100
4100
4200
3C00
ENDCHAR
STARTCHAR Ocircumflex
ENCODING 212
SWIDTH 446 0
DWIDTH 11 0
BBX 9 20 1 0
BITMAP
0800
1400
0000
3C00
4200
4100
8100
8080
8080
8080
8080
8080
8080
8080
8080
8080
8100
4100
4200
3C00
ENDCHAR
STARTCHAR Otilde
ENCODING 213
SWIDTH 446 0
DWIDTH 11 0
BBX 9 21 1 0
BITMAP
1200
2C00
0000
0000
3C00
4200
4100
8100
8080
8080
8080
8080
8080
8080
8080
8080
8080
8100
4100
4200
3C00
ENDCHAR
STARTCHAR Odieresis
ENCODING 214
SWIDTH 446 0
DWIDTH 11 0
BBX 9 21 1 0
BITMAP
1400
1400
1400
0000
3C00
4200
4100
8100
8080
8080
8080
8080
8080
8080
8080
8080
8080
8100
4100
4200
3C00
ENDCHAR
STARTCHAR multiply
ENCODING 215
SWIDTH 445 0
DWIDTH 11 0
BBX 9 9 1 2
BITMAP
0080
8100
4200
2400
1800
1800
2400
4200
8100
ENDCHAR
STARTCHAR Oslash
ENCODING 216
SWIDTH 446 0
DWIDTH 11 0
BBX 9 17 1 0
BITMAP
3D00
4300
4100
8300
8280
8480
8480
8880
8880
9080
9080
9080
A080
A100
4100
4200
BC00
ENDCHAR
STARTCHAR Ugrave
ENCODING 217
SWIDTH 412 0
DWIDTH 10 0
BBX 8 21 1 0
BITMAP
20
10
00
00
81
81
81
81
81
81
81
81
81
81
81
81
81
81
81
42
3C
ENDCHAR
STARTCHAR Uacute
ENCODING 218
SWIDTH 412 0
DWIDTH 10 0
BBX 8 21 1 0
BITMAP
04
08
00
00
81
81
81
81
81
81
81
81
81
81
81
81
81
81
81
42
3C
ENDCHAR
STARTCHAR Ucircumflex
ENCODING 219
SWIDTH 412 0
DWIDTH 10 0
BBX 8 20 1 0
BITMAP
10
18
24
81
81
81
81
81
81
81
81
81
81
81
81
81
81
81
42
3C
ENDCHAR
STARTCHAR Udieresis
ENCODING 220
SWIDTH 412 0
DWIDTH 10 0
BBX 8 21 1 0
BITMAP
28
28
28
00
81
81
81
81
81
81
81
81
81
81
81
81
81
81
81
42
3C
ENDCHAR
STARTCHAR Yacute
ENCODING 221
SWIDTH 370 0
DWIDTH 9 0
BBX 9 21 0 0
BITMAP
0400
0400
0800
0000
8080
4100
4100
4200
2200
2200
1400
1400
0800
0800
0800
0800
0800
0800
0800
0800
0800
ENDCHAR
STARTCHAR Thorn
ENCODING 222
SWIDTH 341 0
DWIDTH 8 0
BBX 6 17 1 0
BITMAP
80
80
80
F8
84
84
84
84
84
84
84
F8
80
80
80
80
80
ENDCHAR
STARTCHAR germandbls
ENCODING 223
SWIDTH 327 0
DWIDTH 8 0
BBX 6 17 1 0
BITMAP
70
48
88
88
88
88
B8
C8
B8
84
84
84
84
84
88
88
F0
ENDCHAR
STARTCHAR agrave
ENCODING 224
SWIDTH 315 0
DWIDTH 8 0
BBX 6 16 1 0
BITMAP
40
20
20
00
70
88
08
08
08
18
68
88
88
88
98
EC
ENDCHAR
STARTCHAR aacute
ENCODING 225
SWIDTH 315 0
DWIDTH 8 0
BBX 6 16 1 0
BITMAP
10
10
20
00
70
88
08
08
08
18
68
88
88
88
98
EC
ENDCHAR
STARTCHAR acircumflex
ENCODING 226
SWIDTH 315 0
DWIDTH 8 0
BBX 6 16 1 0
BITMAP
20
50
48
00
70
88
08
08
08
18
68
88
88
88
98
EC
ENDCHAR
STARTCHAR atilde
ENCODING 227
SWIDTH 315 0
DWIDTH 8 0
BBX 6 16 1 0
BITMAP
68
90
00
00
70
88
08
08
08
18
68
88
88
88
98
EC
ENDCHAR
STARTCHAR adieresis
ENCODING 228
SWIDTH 315 0
DWIDTH 8 0
BBX 6 16 1 0
BITMAP
50
50
50
00
70
88
08
08
08
18
68
88
88
88
98
EC
ENDCHAR
STARTCHAR aring
ENCODING 229
SWIDTH 315 0
DWIDTH 8 0
BBX 6 17 1 0
BITMAP
20
50
50
20
00
70
88
08
08
08
18
68
88
88
88
98
EC
ENDCHAR
STARTCHAR ae
ENCODING 230
SWIDTH 450 0
DWIDTH 11 0
BBX 9 12 1 0
BITMAP
7300
8C80
0880
0880
0880
3F80
4800
8800
8800
8880
8880
7700
ENDCHAR
STARTCHAR ccedilla
ENCODING 231
SWIDTH 275 0
DWIDTH 7 0
BBX 5 16 1 -4
BITMAP
30
48
88
80
80
80
80
80
80
88
48
30
20
10
50
20
ENDCHAR
STARTCHAR egrave
ENCODING 232
SWIDTH 285 0
DWIDTH 7 0
BBX 5 16 1 0
BITMAP
40
20
20
00
30
48
88
88
F8
80
80
80
80
88
48
30
ENDCHAR
STARTCHAR eacute
ENCODING 233
SWIDTH 285 0
DWIDTH 7 0
BBX 5 16 1 0
BITMAP
10
10
20
00
30
48
88
88
F8
80
80
80
80
88
48
30
ENDCHAR
STARTCHAR ecircumflex
ENCODING 234
SWIDTH 285 0
DWIDTH 7 0
BBX 5 16 1 0
BITMAP
20
50
48
00
30
48
88
88
F8
80
80
80
80
88
48
30
ENDCHAR
STARTCHAR edieresis
ENCODING 235
SWIDTH 285 0
DWIDTH 7 0
BBX 5 16 1 0
BITMAP
50
50
50
00
30
48
88
88
F8
80
80
80
80
88
48
30
ENDCHAR
STARTCHAR igrave
ENCODING 236
SWIDTH 141 0
DWIDTH 3 0
BBX 2 16 0 0
BITMAP
80
40
40
00
40
40
40
40
40
40
40
40
40
40
40
40
ENDCHAR
STARTCHAR iacute
ENCODING 237
SWIDTH 141 0
DWIDTH 3 0
BBX 2 16 1 0
BITMAP
40
40
80
00
80
80
80
80
80
80
80
80
80
80
80
80
ENDCHAR
STARTCHAR icircumflex
ENCODING 238
SWIDTH 141 0
DWIDTH 3 0
BBX 4 16 0 0
BITMAP
40
A0
90
00
40
40
40
40
40
40
40
40
40
40
40
40
ENDCHAR
STARTCHAR idieresis
ENCODING 239
SWIDTH 141 0
DWIDTH 3 0
BBX 3 16 0 0
BITMAP
A0
A0
A0
00
40
40
40
40
40
40
40
40
40
40
40
40
ENDCHAR
STARTCHAR eth
ENCODING 240
SWIDTH 319 0
DWIDTH 8 0
BBX 6 18 1 0
BITMAP
40
20
28
70
08
08
38
48
84
84
84
84
84
84
84
88
48
30
ENDCHAR
STARTCHAR ntilde
ENCODING 241
SWIDTH 307 0
DWIDTH 7 0
BBX 5 16 1 0
BITMAP
68
90
00
00
B8
C8
88
88
88
88
88
88
88
88
88
88
ENDCHAR
STARTCHAR ograve
ENCODING 242
SWIDTH 309 0
DWIDTH 7 0
BBX 5 16 1 0
BITMAP
40
20
20
00
30
48
88
88
88
88
88
88
88
88
48
30
ENDCHAR
STARTCHAR oacute
ENCODING 243
SWIDTH 309 0
DWIDTH 7 0
BBX 5 16 1 0
BITMAP
10
10
20
00
30
48
88
88
88
88
88
88
88
88
48
30
ENDCHAR
STARTCHAR ocircumflex
ENCODING 244
SWIDTH 309 0
DWIDTH 7 0
BBX 5 16 1 0
BITMAP
20
50
48
00
30
48
88
88
88
88
88
88
88
88
48
30
ENDCHAR
STARTCHAR otilde
ENCODING 245
SWIDTH 309 0
DWIDTH 7 0
BBX 5 16 1 0
BITMAP
68
90
00
00
30
48
88
88
88
88
88
88
88
88
48
30
ENDCHAR
STARTCHAR odieresis
ENCODING 246
SWIDTH 309 0
DWIDTH 7 0
BBX 5 16 1 0
BITMAP
50
50
50
00
30
48
88
88
88
88
88
88
88
88
48
30
ENDCHAR
STARTCHAR divide
ENCODING 247
SWIDTH 577 0
DWIDTH 14 0
BBX 12 12 1 0
BITMAP
0400
0400
0400
0000
0000
0000
FFF0
0000
0000
0400
0400
0400
ENDCHAR
STARTCHAR oslash
ENCODING 248
SWIDTH 309 0
DWIDTH 7 0
BBX 5 12 1 0
BITMAP
38
48
88
98
98
A8
A8
A8
C8
C8
88
F0
ENDCHAR
STARTCHAR ugrave
ENCODING 249
SWIDTH 307 0
DWIDTH 7 0
BBX 5 16 1 0
BITMAP
40
20
20
00
88
88
88
88
88
88
88
88
88
88
88
78
ENDCHAR
STARTCHAR uacute
ENCODING 250
SWIDTH 307 0
DWIDTH 7 0
BBX 5 16 1 0
BITMAP
10
10
20
00
88
88
88
88
88
88
88
88
88
88
88
78
ENDCHAR
STARTCHAR ucircumflex
ENCODING 251
SWIDTH 307 0
DWIDTH 7 0
BBX 5 16 1 0
BITMAP
20
50
48
00
88
88
88
88
88
88
88
88
88
88
88
78
ENDCHAR
STARTCHAR udieresis
ENCODING 252
SWIDTH 307 0
DWIDTH 7 0
BBX 5 16 1 0
BITMAP
50
50
50
00
88
88
88
88
88
88
88
88
88
88
88
78
ENDCHAR
STARTCHAR yacute
ENCODING 253
SWIDTH 285 0
DWIDTH 7 0
BBX 6 21 0 -5
BITMAP
08
08
10
00
84
84
44
44
44
48
28
28
28
28
10
10
10
10
20
20
C0
ENDCHAR
STARTCHAR thorn
ENCODING 254
SWIDTH 299 0
DWIDTH 7 0
BBX 6 22 0 -5
BITMAP
40
40
40
40
40
78
C4
44
44
44
44
44
44
44
44
44
78
40
40
40
40
40
ENDCHAR
STARTCHAR ydieresis
ENCODING 255
SWIDTH 285 0
DWIDTH 7 0
BBX 6 21 0 -5
BITMAP
28
28
28
00
84
84
44
44
44
48
28
28
28
28
10
10
10
10
20
20
C0
ENDCHAR
STARTCHAR dotlessi
ENCODING 305
SWIDTH 141 0
DWIDTH 3 0
BBX 1 12 1 0
BITMAP
80
80
80
80
80
80
80
80
80
80
80
80
ENDCHAR
STARTCHAR OE
ENCODING 338
SWIDTH 505 0
DWIDTH 12 0
BBX 10 17 1 0
BITMAP
3FC0
4400
4400
8400
8400
8400
8400
87C0
8400
8400
8400
8400
8400
8400
4400
4400
3FC0
ENDCHAR
STARTCHAR oe
ENCODING 339
SWIDTH 492 0
DWIDTH 12 0
BBX 10 12 1 0
BITMAP
3380
4A40
8C40
8440
87C0
8400
8400
8400
8400
8C40
4A40
3180
ENDCHAR
STARTCHAR Wcircumflex
ENCODING 372
SWIDTH 534 0
DWIDTH 13 0
BBX 11 20 1 0
BITMAP
0400
0A00
0000
8020
8020
8020
8020
8020
8420
8A20
8A40
8A40
8C40
4440
4440
4A40
5240
5140
60C0
4040
ENDCHAR
STARTCHAR wcircumflex
ENCODING 373
SWIDTH 396 0
DWIDTH 10 0
BBX 8 16 1 0
BITMAP
10
28
24
00
81
81
81
91
99
99
99
92
92
AA
C6
42
ENDCHAR
STARTCHAR Ycircumflex
ENCODING 374
SWIDTH 370 0
DWIDTH 9 0
BBX 9 20 0 0
BITMAP
0800
1400
0000
8080
4100
4100
4200
2200
2200
1400
1400
0800
0800
0800
0800
0800
0800
0800
0800
0800
ENDCHAR
STARTCHAR ycircumflex
ENCODING 375
SWIDTH 285 0
DWIDTH 7 0
BBX 6 21 0 -5
BITMAP
10
28
48
00
84
84
44
44
44
48
28
28
28
28
10
10
10
10
20
20
C0
ENDCHAR
STARTCHAR Ydieresis
ENCODING 376
SWIDTH 370 0
DWIDTH 9 0
BBX 9 21 0 0
BITMAP
1400
1400
1400
0000
8080
4100
4100
4200
2200
2200
1400
1400
0800
0800
0800
0800
0800
0800
0800
0800
0800
ENDCHAR
STARTCHAR uni0237
ENCODING 567
SWIDTH 141 0
DWIDTH 3 0
BBX 4 17 -2 -5
BITMAP
10
10
10
10
10
10
10
10
10
10
10
10
10
10
10
10
E0
ENDCHAR
STARTCHAR circumflex
ENCODING 710
SWIDTH 280 0
DWIDTH 7 0
BBX 4 3 1 13
BITMAP
20
50
90
ENDCHAR
STARTCHAR ring
ENCODING 730
SWIDTH 238 0
DWIDTH 6 0
BBX 3 4 1 13
BITMAP
60
A0
A0
60
ENDCHAR
STARTCHAR tilde
ENCODING 732
SWIDTH 301 0
DWIDTH 7 0
BBX 5 2 1 14
BITMAP
68
90
ENDCHAR
STARTCHAR gravecomb
ENCODING 768
SWIDTH 0 0
DWIDTH 0 0
BBX 2 3 1 13
BITMAP
80
40
40
ENDCHAR
STARTCHAR acutecomb
ENCODING 769
SWIDTH 0 0
DWIDTH 0 0
BBX 2 3 1 13
BITMAP
40
40
80
ENDCHAR
STARTCHAR uni0302
ENCODING 770
SWIDTH 0 0
DWIDTH 0 0
BBX 4 3 1 13
BITMAP
20
50
90
ENDCHAR
STARTCHAR tildecomb
ENCODING 771
SWIDTH 0 0
DWIDTH 0 0
BBX 5 2 1 14
BITMAP
68
90
ENDCHAR
STARTCHAR uni0307
ENCODING 775
SWIDTH 0 0
DWIDTH 0 0
BBX 1 3 1 13
BITMAP
80
80
80
ENDCHAR
STARTCHAR uni0308
ENCODING 776
SWIDTH 0 0
DWIDTH 0 0
BBX 3 3 1 13
BITMAP
A0
A0
A0
ENDCHAR
STARTCHAR uni030A
ENCODING 778
SWIDTH 0 0
DWIDTH 0 0
BBX 3 4 1 13
BITMAP
60
A0
A0
60
ENDCHAR
STARTCHAR uni0327
ENCODING 807
SWIDTH 0 0
DWIDTH 0 0
BBX 3 5 1 -4
BITMAP
40
60
20
A0
40
ENDCHAR
STARTCHAR Wgrave
ENCODING 7808
SWIDTH 534 0
DWIDTH 13 0
BBX 11 21 1 0
BITMAP
0800
0800
0400
0000
8020
8020
8020
8020
8020
8420
8A20
8A40
8A40
8C40
4440
4440
4A40
5240
5140
60C0
4040
ENDCHAR
STARTCHAR wgrave
ENCODING 7809
SWIDTH 396 0
DWIDTH 10 0
BBX 8 16 1 0
BITMAP
20
10
10
00
81
81
81
91
99
99
99
92
92
AA
C6
42
ENDCHAR
STARTCHAR Wacute
ENCODING 7810
SWIDTH 534 0
DWIDTH 13 0
BBX 11 21 1 0
BITMAP
0200
0200
0400
0000
8020
8020
8020
8020
8020
8420
8A20
8A40
8A40
8C40
4440
4440
4A40
5240
5140
60C0
4040
ENDCHAR
STARTCHAR wacute
ENCODING 7811
SWIDTH 396 0
DWIDTH 10 0
BBX 8 16 1 0
BITMAP
08
08
10
00
81
81
81
91
99
99
99
92
92
AA
C6
42
ENDCHAR
STARTCHAR Wdieresis
ENCODING 7812
SWIDTH 534 0
DWIDTH 13 0
BBX 11 21 1 0
BITMAP
0A00
0A00
0A00
0000
8020
8020
8020
8020
8020
8420
8A20
8A40
8A40
8C40
4440
4440
4A40
5240
5140
60C0
4040
ENDCHAR
STARTCHAR wdieresis
ENCODING 7813
SWIDTH 396 0
DWIDTH 10 0
BBX 8 16 1 0
BITMAP
28
28
28
00
81
81
81
91
99
99
99
92
92
AA
C6
42
ENDCHAR
STARTCHAR uni1E9E
ENCODING 7838
SWIDTH 375 0
DWIDTH 9 0
BBX 7 17 1 0
BITMAP
38
44
84
84
84
84
94
AC
94
82
82
82
82
82
82
84
F8
ENDCHAR
STARTCHAR Ygrave
ENCODING 7922
SWIDTH 370 0
DWIDTH 9 0
BBX 9 21 0 0
BITMAP
1000
1000
0800
0000
8080
4100
4100
4200
2200
2200
1400
1400
0800
0800
0800
0800
0800
0800
0800
0800
0800
ENDCHAR
STARTCHAR ygrave
ENCODING 7923
SWIDTH 285 0
DWIDTH 7 0
BBX 6 21 0 -5
BITMAP
20
20
10
00
84
84
44
44
44
48
28
28
28
28
10
10
10
10
20
20
C0
ENDCHAR
STARTCHAR endash
ENCODING 8211
SWIDTH 425 0
DWIDTH 10 0
BBX 8 1 1 5
BITMAP
FF
ENDCHAR
STARTCHAR emdash
ENCODING 8212
SWIDTH 770 0
DWIDTH 18 0
BBX 17 1 1 5
BITMAP
FFFF80
ENDCHAR
STARTCHAR quoteleft
ENCODING 8216
SWIDTH 145 0
DWIDTH 3 0
BBX 2 5 1 12
BITMAP
40
80
80
80
80
ENDCHAR
STARTCHAR quoteright
ENCODING 8217
SWIDTH 145 0
DWIDTH 3 0
BBX 1 5 1 12
BITMAP
80
80
80
80
80
ENDCHAR
STARTCHAR quotesinglbase
ENCODING 8218
SWIDTH 145 0
DWIDTH 3 0
BBX 2 5 0 -2
BITMAP
40
40
40
40
C0
ENDCHAR
STARTCHAR quotedblleft
ENCODING 8220
SWIDTH 219 0
DWIDTH 5 0
BBX 4 5 1 12
BITMAP
70
A0
A0
A0
A0
ENDCHAR
STARTCHAR quotedblright
ENCODING 8221
SWIDTH 219 0
DWIDTH 5 0
BBX 3 5 1 12
BITMAP
60
60
60
A0
E0
ENDCHAR
STARTCHAR quotedblbase
ENCODING 8222
SWIDTH 219 0
DWIDTH 5 0
BBX 4 5 0 -2
BITMAP
50
50
50
50
E0
ENDCHAR
STARTCHAR bullet
ENCODING 8226
SWIDTH 355 0
DWIDTH 9 0
BBX 6 6 1 6
BITMAP
38
7C
FC
FC
7C
38
ENDCHAR
STARTCHAR ellipsis
ENCODING 8230
SWIDTH 651 0
DWIDTH 16 0
BBX 12 3 2 0
BITMAP
8410
8410
8410
ENDCHAR
STARTCHAR guilsinglleft
ENCODING 8249
SWIDTH 263 0
DWIDTH 6 0
BBX 4 10 1 2
BITMAP
10
10
20
40
80
80
40
20
10
10
ENDCHAR
STARTCHAR guilsinglright
ENCODING 8250
SWIDTH 263 0
DWIDTH 6 0
BBX 4 10 1 2
BITMAP
80
40
20
20
10
10
20
40
40
80
ENDCHAR
STARTCHAR fraction
ENCODING 8260
SWIDTH 152 0
DWIDTH 4 0
BBX 8 17 -2 0
BITMAP
01
01
02
02
04
04
08
08
10
10
20
20
40
40
80
80
80
ENDCHAR
STARTCHAR uni2074
ENCODING 8308
SWIDTH 247 0
DWIDTH 6 0
BBX 4 8 1 9
BITMAP
20
40
40
A0
A0
F0
20
20
ENDCHAR
STARTCHAR Euro
ENCODING 8364
SWIDTH 391 0
DWIDTH 9 0
BBX 9 17 0 0
BITMAP
0F00
1080
2000
2000
2000
2000
4000
FC00
4000
FC00
4000
2000
2000
2000
2000
1080
0F00
ENDCHAR
STARTCHAR trademark
ENCODING 8482
SWIDTH 506 0
DWIDTH 12 0
BBX 11 8 0 9
BITMAP
FA20
2360
22A0
23A0
22A0
23A0
22A0
2220
ENDCHAR
STARTCHAR minus
ENCODING 8722
SWIDTH 557 0
DWIDTH 13 0
BBX 11 1 1 7
BITMAP
FFE0
ENDCHAR
STARTCHAR uni2215
ENCODING 8725
SWIDTH 259 0
DWIDTH 6 0
BBX 6 17 0 0
BITMAP
04
04
04
08
08
08
10
10
10
20
20
20
40
40
40
80
80
ENDCHAR
STARTCHAR .notdef
ENCODING -1
SWIDTH 500 0
DWIDTH 12 0
BBX 10 21 1 -4
BITMAP
FFC0
8040
8040
8040
8040
8040
8040
8040
8040
8040
8040
8040
8040
8040
8040
8040
8040
8040
8040
8040
FFC0
ENDCHAR
STARTCHAR NULL
ENCODING -1
SWIDTH 600 0
DWIDTH 14 0
BBX 1 1 0 0
BITMAP
00
ENDCHAR
STARTCHAR acutecomb.case
ENCODING -1
SWIDTH 0 0
DWIDTH 0 0
BBX 2 2 1 19
BITMAP
40
C0
ENDCHAR
STARTCHAR uni0302.case
ENCODING -1
SWIDTH 0 0
DWIDTH 0 0
BBX 4 3 1 17
BITMAP
20
60
90
ENDCHAR
STARTCHAR uni0308.case
ENCODING -1
SWIDTH 0 0
DWIDTH 0 0
BBX 3 3 1 18
BITMAP
A0
A0
A0
ENDCHAR
STARTCHAR uni0307.case
ENCODING -1
SWIDTH 0 0
DWIDTH 0 0
BBX 1 3 1 18
BITMAP
80
80
80
ENDCHAR
STARTCHAR gravecomb.case
ENCODING -1
SWIDTH 0 0
DWIDTH 0 0
BBX 2 2 1 19
BITMAP
80
40
ENDCHAR
STARTCHAR uni030A.case
ENCODING -1
SWIDTH 0 0
DWIDTH 0 0
BBX 3 3 1 18
BITMAP
40
A0
60
ENDCHAR
STARTCHAR tildecomb.case
ENCODING -1
SWIDTH 0 0
DWIDTH 0 0
BBX 5 2 1 19
BITMAP
68
90
ENDCHAR
ENDFONT
